<svg xmlns="http://www.w3.org/2000/svg" xmlns:xlink="http://www.w3.org/1999/xlink" width="500" zoomAndPan="magnify" viewBox="0 0 375 374.999991" height="500" preserveAspectRatio="xMidYMid meet" version="1.0"><defs><clipPath id="id1"><path d="M 145 123.472656 L 149 123.472656 L 149 324 L 145 324 Z M 145 123.472656 " clip-rule="nonzero"/></clipPath><clipPath id="id2"><path d="M 30 198 L 229 198 L 229 340.972656 L 30 340.972656 Z M 30 198 " clip-rule="nonzero"/></clipPath><clipPath id="id3"><path d="M 31 40 L 141 40 L 141 149 L 31 149 Z M 31 40 " clip-rule="nonzero"/></clipPath><clipPath id="id4"><path d="M 5.9375 105.972656 L 108.113281 12.097656 L 173.0625 82.792969 L 70.886719 176.664062 Z M 5.9375 105.972656 " clip-rule="nonzero"/></clipPath><clipPath id="id5"><path d="M 5.9375 105.972656 L 108.113281 12.097656 L 173.0625 82.792969 L 70.886719 176.664062 Z M 5.9375 105.972656 " clip-rule="nonzero"/></clipPath><clipPath id="id6"><path d="M 98.085938 102.777344 L 107.835938 102.777344 L 107.835938 112.527344 L 98.085938 112.527344 Z M 98.085938 102.777344 " clip-rule="nonzero"/></clipPath><clipPath id="id7"><path d="M 273.839844 134.804688 L 283.589844 134.804688 L 283.589844 144.554688 L 273.839844 144.554688 Z M 273.839844 134.804688 " clip-rule="nonzero"/></clipPath></defs><path fill="rgb(99.609375%, 89.408875%, 83.529663%)" d="M 345.507812 291.523438 C 321.878906 278.195312 288.152344 267.734375 277.550781 283.523438 C 265.574219 301.359375 288.503906 314.757812 291.003906 333.179688 C 293.742188 353.40625 316.761719 362.960938 333.9375 346.804688 C 355.476562 326.542969 369.070312 304.816406 345.507812 291.523438 Z M 345.507812 291.523438 " fill-opacity="1" fill-rule="nonzero"/><g clip-path="url(#id1)"><path fill="rgb(34.118652%, 22.349548%, 38.038635%)" d="M 147.019531 323.480469 C 146.367188 323.480469 145.835938 322.953125 145.835938 322.300781 L 145.835938 123.476562 L 148.203125 123.476562 L 148.203125 322.300781 C 148.203125 322.953125 147.671875 323.480469 147.019531 323.480469 " fill-opacity="1" fill-rule="nonzero"/></g><path fill="rgb(55.688477%, 56.079102%, 63.139343%)" d="M 160.765625 151.046875 C 157.207031 151.046875 154.3125 148.15625 154.3125 144.601562 L 154.3125 143.964844 C 154.3125 141.597656 152.386719 139.675781 150.019531 139.675781 L 148.203125 139.675781 L 148.203125 138.496094 L 150.019531 138.496094 C 153.039062 138.496094 155.496094 140.949219 155.496094 143.964844 L 155.496094 144.601562 C 155.496094 147.503906 157.859375 149.867188 160.765625 149.867188 C 163.671875 149.867188 166.039062 147.503906 166.039062 144.601562 L 166.039062 141.980469 L 167.222656 141.980469 L 167.222656 144.601562 C 167.222656 148.15625 164.324219 151.046875 160.765625 151.046875 " fill-opacity="1" fill-rule="nonzero"/><path fill="rgb(55.688477%, 56.079102%, 63.139343%)" d="M 133.269531 151.046875 C 136.832031 151.046875 139.726562 148.15625 139.726562 144.601562 L 139.726562 143.964844 C 139.726562 141.597656 141.652344 139.675781 144.019531 139.675781 L 145.835938 139.675781 L 145.835938 138.496094 L 144.019531 138.496094 C 141 138.496094 138.542969 140.949219 138.542969 143.964844 L 138.542969 144.601562 C 138.542969 147.503906 136.179688 149.867188 133.269531 149.867188 C 130.363281 149.867188 128 147.503906 128 144.601562 L 128 141.980469 L 126.816406 141.980469 L 126.816406 144.601562 C 126.816406 148.15625 129.710938 151.046875 133.269531 151.046875 " fill-opacity="1" fill-rule="nonzero"/><path fill="rgb(99.609375%, 95.289612%, 94.119263%)" d="M 166.925781 185.078125 C 166.722656 185.078125 166.605469 185.074219 166.605469 185.074219 C 166.605469 185.074219 166.492188 185.078125 166.289062 185.078125 C 164.675781 185.078125 157.386719 184.671875 155.554688 177.441406 C 153.488281 169.292969 154.90625 147.867188 154.90625 147.867188 C 154.90625 147.867188 155.015625 147.867188 155.203125 147.867188 C 156.328125 149.769531 158.398438 151.046875 160.765625 151.046875 C 164.269531 151.046875 167.128906 148.246094 167.21875 144.773438 L 168.273438 144.773438 C 169.304688 144.773438 170.234375 145.390625 170.636719 146.34375 C 170.859375 146.871094 171.089844 147.371094 171.230469 147.53125 C 171.496094 147.835938 175.753906 147.867188 177.535156 147.867188 C 178.007812 147.867188 178.308594 147.867188 178.308594 147.867188 C 178.308594 147.867188 179.726562 169.292969 177.660156 177.441406 C 175.828125 184.671875 168.539062 185.078125 166.925781 185.078125 M 160.765625 149.867188 C 159.09375 149.867188 157.597656 149.082031 156.632812 147.863281 C 158.652344 147.851562 161.757812 147.789062 161.984375 147.53125 C 162.125 147.371094 162.355469 146.871094 162.578125 146.34375 C 162.980469 145.390625 163.910156 144.773438 164.941406 144.773438 L 166.035156 144.773438 C 165.945312 147.59375 163.617188 149.867188 160.765625 149.867188 " fill-opacity="1" fill-rule="nonzero"/><path fill="rgb(89.7995%, 85.488892%, 86.268616%)" d="M 160.765625 151.046875 C 158.398438 151.046875 156.328125 149.769531 155.203125 147.867188 C 155.328125 147.867188 155.488281 147.867188 155.679688 147.867188 C 155.949219 147.867188 156.273438 147.867188 156.632812 147.863281 C 157.597656 149.082031 159.09375 149.867188 160.765625 149.867188 C 163.617188 149.867188 165.945312 147.59375 166.035156 144.773438 L 167.21875 144.773438 C 167.128906 148.246094 164.269531 151.046875 160.765625 151.046875 " fill-opacity="1" fill-rule="nonzero"/><path fill="rgb(79.60968%, 25.878906%, 32.159424%)" d="M 176.9375 161.550781 L 156.277344 161.550781 C 156.277344 161.550781 155.570312 170.496094 156.886719 176.25 C 157.585938 179.304688 159.492188 181.070312 161.546875 182.128906 C 164.707031 183.753906 168.503906 183.753906 171.664062 182.128906 C 173.71875 181.070312 175.625 179.304688 176.328125 176.25 C 177.644531 170.496094 176.9375 161.550781 176.9375 161.550781 " fill-opacity="1" fill-rule="nonzero"/><path fill="rgb(55.688477%, 56.079102%, 63.139343%)" d="M 167.222656 146.253906 C 167.222656 145.914062 166.945312 145.640625 166.605469 145.640625 C 166.269531 145.640625 165.992188 145.914062 165.992188 146.253906 C 165.992188 146.589844 166.269531 146.867188 166.605469 146.867188 C 166.945312 146.867188 167.222656 146.589844 167.222656 146.253906 " fill-opacity="1" fill-rule="nonzero"/><path fill="rgb(55.688477%, 56.079102%, 63.139343%)" d="M 167.222656 146.25 L 167.222656 144.199219 C 167.222656 144.199219 166.039062 144.019531 166.039062 144.3125 C 166.039062 144.601562 165.996094 146.25 165.996094 146.25 L 167.222656 146.25 " fill-opacity="1" fill-rule="nonzero"/><path fill="rgb(79.60968%, 25.878906%, 32.159424%)" d="M 35.46875 199.085938 C 35.46875 199.085938 37.761719 190.867188 79.621094 187.761719 C 121.480469 184.660156 129.207031 186.425781 137.929688 214.734375 C 146.652344 243.042969 170.648438 297.027344 180.703125 313.660156 C 156.390625 326.648438 82.363281 322.265625 82.363281 322.265625 C 82.363281 322.265625 47.996094 245.070312 47.996094 243.972656 C 47.996094 242.878906 35.46875 199.085938 35.46875 199.085938 " fill-opacity="1" fill-rule="nonzero"/><g clip-path="url(#id2)"><path fill="rgb(64.709473%, 18.429565%, 25.099182%)" d="M 228.410156 340.972656 L 78.429688 340.972656 C 78.429688 340.972656 39.769531 261.859375 32.09375 227.367188 C 24.414062 192.875 42.511719 194.699219 47.449219 204.554688 C 52.382812 214.410156 63.167969 260.035156 72.125 281.933594 C 81.082031 303.832031 93.855469 323.363281 93.855469 323.363281 L 205.386719 327.59375 C 205.386719 327.59375 223.109375 328.652344 228.410156 340.972656 " fill-opacity="1" fill-rule="nonzero"/></g><path fill="rgb(34.118652%, 22.349548%, 38.038635%)" d="M 122.652344 225.8125 C 122.652344 225.8125 128.066406 222.894531 127.671875 215.503906 C 127.277344 208.113281 121.425781 204.644531 119.414062 197.070312 C 117.402344 189.496094 117.128906 179.367188 111.371094 174.257812 C 105.613281 169.148438 102.234375 169.605469 102.234375 169.605469 C 102.234375 169.605469 91.8125 164.199219 82.125 169.59375 C 72.4375 174.988281 72.253906 186.121094 74.265625 195.882812 C 76.277344 205.648438 74.90625 209.570312 71.433594 214.773438 C 67.960938 219.976562 66.769531 226.726562 69.511719 231.835938 C 72.253906 236.949219 77.28125 238.226562 77.28125 238.226562 C 77.28125 238.226562 111.8125 236.125 122.652344 225.8125 " fill-opacity="1" fill-rule="nonzero"/><path fill="rgb(100%, 76.858521%, 67.83905%)" d="M 124.53125 224.996094 C 124.53125 224.996094 132.117188 225.632812 140.34375 232.476562 C 148.570312 239.320312 160.199219 248.242188 165.167969 251.265625 C 158.257812 260.492188 152.316406 265.328125 152.316406 265.328125 C 152.316406 265.328125 132.484375 257.386719 132.484375 257.660156 C 132.484375 257.933594 124.53125 224.996094 124.53125 224.996094 " fill-opacity="1" fill-rule="nonzero"/><path fill="rgb(49.798584%, 11.369324%, 20.779419%)" d="M 234.238281 282.550781 C 234.238281 282.550781 261.269531 278.875 263.671875 280.679688 C 263.976562 280.90625 263.769531 287.363281 263.691406 287.8125 C 263.140625 290.941406 254.046875 298.660156 247.070312 299.175781 C 239.09375 299.769531 152.148438 294.007812 147.554688 292.890625 C 145.378906 292.359375 144.183594 291.714844 144.226562 290.824219 C 144.253906 290.332031 143.652344 284.265625 144.480469 283.601562 C 145.3125 282.933594 149.21875 283.753906 150.945312 282.875 C 157.507812 279.519531 161.226562 280.679688 161.226562 280.679688 L 234.238281 282.550781 " fill-opacity="1" fill-rule="nonzero"/><path fill="rgb(64.709473%, 18.429565%, 25.099182%)" d="M 234.238281 276.019531 C 234.238281 276.019531 260.96875 278.445312 263.375 280.25 C 265.78125 282.058594 255.042969 292.050781 247.066406 292.644531 C 239.09375 293.234375 152.148438 287.472656 147.554688 286.355469 C 142.960938 285.238281 142.742188 283.605469 149.304688 280.25 C 155.867188 276.898438 161.226562 274.148438 161.226562 274.148438 L 234.238281 276.019531 " fill-opacity="1" fill-rule="nonzero"/><path fill="rgb(100%, 76.858521%, 67.83905%)" d="M 251.550781 268.109375 C 251.550781 268.109375 251.238281 271.125 242.816406 274.398438 C 234.398438 277.675781 229.476562 277.402344 229.476562 277.402344 C 229.476562 277.402344 226.90625 272.523438 229.039062 268.902344 C 231.171875 265.28125 234.636719 263.601562 234.636719 263.601562 L 250.039062 263.601562 L 251.550781 268.109375 " fill-opacity="1" fill-rule="nonzero"/><path fill="rgb(79.60968%, 25.878906%, 32.159424%)" d="M 234.21875 265.777344 C 234.21875 265.777344 234.703125 270.664062 239.792969 271.34375 C 244.878906 272.027344 248.023438 268.359375 248.550781 263.019531 C 249.074219 257.679688 247.996094 253.59375 246.203125 253.070312 C 244.40625 252.546875 237.796875 254.796875 235.070312 260.925781 C 234.390625 262.546875 234.21875 265.777344 234.21875 265.777344 " fill-opacity="1" fill-rule="nonzero"/><path fill="rgb(79.60968%, 25.878906%, 32.159424%)" d="M 195.613281 294.207031 C 175.601562 294.207031 171.140625 278.371094 170.265625 268.929688 L 170.203125 268.25 C 169.09375 256.3125 166.492188 228.347656 166.492188 182.816406 L 167.125 182.816406 C 167.125 228.320312 169.722656 256.261719 170.832031 268.191406 L 170.894531 268.875 C 171.753906 278.097656 176.101562 293.574219 195.613281 293.574219 C 205.101562 293.574219 210.503906 289.492188 213.363281 286.066406 C 216.472656 282.347656 217.347656 278.574219 217.355469 278.535156 L 217.972656 278.671875 C 217.9375 278.832031 217.0625 282.613281 213.867188 286.449219 C 210.921875 289.988281 205.359375 294.207031 195.613281 294.207031 " fill-opacity="1" fill-rule="nonzero"/><path fill="rgb(100%, 76.858521%, 67.83905%)" d="M 160.027344 248.246094 C 160.027344 248.246094 176.214844 258.074219 185.074219 261.132812 C 193.933594 264.191406 217.226562 267.683594 228.382812 267.355469 C 229.148438 271.613281 229.476562 277.402344 229.476562 277.402344 C 229.476562 277.402344 208.914062 282.097656 186.929688 278.382812 C 164.949219 274.671875 150.183594 265.390625 150.183594 265.390625 C 150.183594 265.390625 152.808594 251.085938 160.027344 248.246094 " fill-opacity="1" fill-rule="nonzero"/><path fill="rgb(100%, 100%, 100%)" d="M 191.652344 262.925781 C 191.652344 262.925781 186.660156 264.515625 183.542969 267.957031 C 184.144531 268.828125 185.347656 269.757812 185.347656 269.757812 C 185.347656 269.757812 192.046875 264.652344 195.613281 263.765625 C 193.6875 263.375 191.652344 262.925781 191.652344 262.925781 " fill-opacity="1" fill-rule="nonzero"/><path fill="rgb(100%, 100%, 100%)" d="M 199.875 264.558594 C 199.875 264.558594 194.207031 267.191406 191.304688 270.46875 C 193.164062 271.722656 193.984375 272.160156 193.984375 272.160156 C 193.984375 272.160156 199.519531 266.644531 203.777344 265.199219 C 200.941406 264.738281 199.875 264.558594 199.875 264.558594 " fill-opacity="1" fill-rule="nonzero"/><path fill="rgb(34.118652%, 22.349548%, 38.038635%)" d="M 165.167969 272.464844 C 165.167969 272.464844 165.605469 269.089844 168.449219 262.925781 C 171.292969 256.765625 172.574219 255.351562 172.574219 255.351562 C 172.574219 255.351562 173.644531 254.199219 170.035156 252.289062 C 166.425781 250.378906 165.167969 251.265625 165.167969 251.265625 C 165.167969 251.265625 162.160156 255.617188 159.808594 260.695312 C 157.457031 265.773438 157.121094 269.054688 157.121094 269.054688 C 157.121094 269.054688 158.9375 271.945312 165.167969 272.464844 " fill-opacity="1" fill-rule="nonzero"/><path fill="rgb(79.60968%, 25.878906%, 32.159424%)" d="M 199.40625 269.21875 C 196.746094 269.21875 194.964844 268.289062 192.753906 267.136719 C 191.957031 266.722656 191.132812 266.292969 190.175781 265.855469 C 186.421875 264.140625 181.566406 263.921875 181.519531 263.917969 L 181.542969 263.289062 C 181.75 263.296875 186.574219 263.515625 190.4375 265.28125 C 191.410156 265.722656 192.238281 266.15625 193.046875 266.578125 C 195.433594 267.820312 197.15625 268.722656 200.011719 268.570312 C 202.863281 268.417969 204.679688 267.339844 206.285156 266.390625 C 207.695312 265.550781 209.03125 264.761719 210.804688 264.722656 C 214.617188 264.636719 216.238281 266.707031 216.292969 266.785156 L 215.335938 266.691406 C 215.324219 266.675781 214.289062 265.273438 210.820312 265.351562 C 209.210938 265.386719 208.003906 266.101562 206.605469 266.933594 C 204.941406 267.921875 203.050781 269.042969 200.046875 269.199219 C 199.824219 269.210938 199.613281 269.21875 199.40625 269.21875 " fill-opacity="1" fill-rule="nonzero"/><path fill="rgb(100%, 76.858521%, 67.83905%)" d="M 228.382812 267.355469 C 228.382812 267.355469 230.515625 261.1875 232.046875 260.3125 C 233.574219 259.441406 237.402344 260.039062 238.550781 260.039062 C 239.699219 260.039062 241.996094 261.242188 240.792969 261.679688 C 239.589844 262.113281 235.875 262.003906 235.21875 262.660156 C 234.5625 263.316406 233.574219 269.320312 231.992188 271.179688 C 230.40625 273.035156 227.234375 271.34375 228.382812 267.355469 " fill-opacity="1" fill-rule="nonzero"/><path fill="rgb(100%, 76.858521%, 67.83905%)" d="M 251.210938 259.839844 C 251.210938 259.839844 251.292969 258.527344 250.144531 257.746094 C 248.996094 256.96875 245.921875 255.292969 245.222656 256.234375 C 244.527344 257.175781 249.449219 259.839844 249.449219 259.839844 C 249.449219 259.839844 245.253906 257.910156 245.15625 259.097656 C 245.058594 260.285156 248.628906 261.800781 248.628906 261.800781 C 248.628906 261.800781 245.390625 260.53125 245.632812 261.964844 C 245.878906 263.398438 248.792969 264.953125 248.792969 264.953125 C 248.792969 264.953125 245.59375 263.847656 246.046875 264.953125 C 246.496094 266.058594 249.816406 268.925781 251.007812 268.515625 C 252.195312 268.105469 251.746094 266.253906 251.746094 266.253906 C 251.746094 266.253906 252.6875 265.238281 252.238281 264.03125 C 251.785156 262.824219 251.253906 262.621094 251.253906 262.621094 C 251.253906 262.621094 252.152344 261.84375 251.867188 260.859375 C 251.582031 259.875 251.210938 259.839844 251.210938 259.839844 " fill-opacity="1" fill-rule="nonzero"/><path fill="rgb(99.609375%, 93.728638%, 92.549133%)" d="M 76.261719 236.976562 C 76.722656 236.773438 78.285156 234.515625 88.980469 231.808594 C 102.230469 232.476562 117.496094 224.324219 117.496094 224.324219 C 117.496094 224.324219 121.058594 224.171875 124.535156 224.992188 C 131.9375 235.761719 135.410156 238.863281 140.894531 241.328125 C 146.375 243.792969 150.308594 247.53125 152.226562 254.375 C 154.144531 261.21875 150.214844 268.613281 150.214844 268.613281 C 150.214844 268.613281 156.003906 288.6875 160.390625 295.257812 C 164.777344 301.828125 170.628906 309.734375 170.628906 309.734375 L 114.9375 307.425781 L 76.261719 236.976562 " fill-opacity="1" fill-rule="nonzero"/><path fill="rgb(100%, 76.858521%, 67.83905%)" d="M 98.578125 219.609375 C 98.578125 219.609375 110.050781 221.757812 112.214844 210.960938 C 114.375 200.164062 112.214844 187.992188 112.214844 187.992188 C 112.214844 187.992188 107.59375 182.199219 104.25 176.996094 C 103.167969 185.242188 92.550781 191.820312 92.550781 191.820312 C 92.550781 191.820312 91.863281 197.316406 94.710938 205.660156 C 97.5625 214.003906 98.183594 214.898438 98.578125 219.609375 " fill-opacity="1" fill-rule="nonzero"/><path fill="rgb(100%, 76.858521%, 67.83905%)" d="M 88.980469 231.808594 C 88.980469 231.808594 94.039062 237.890625 106.285156 236.855469 C 118.53125 235.820312 117.496094 224.324219 117.496094 224.324219 C 117.496094 224.324219 113.292969 224.871094 110.425781 224.933594 C 107.5625 224.996094 107.441406 221.527344 107.199219 217.511719 C 104.273438 217.695312 98.578125 219.609375 98.578125 219.609375 C 98.578125 219.609375 100.738281 229.007812 88.980469 231.808594 " fill-opacity="1" fill-rule="nonzero"/><path fill="rgb(100%, 76.858521%, 67.83905%)" d="M 125.113281 267.699219 L 121.882812 263.136719 L 122.859375 246.347656 C 122.859375 246.347656 133.519531 246.527344 133.460938 248.414062 C 133.398438 250.300781 129.316406 264.109375 129.316406 264.109375 L 125.113281 267.699219 " fill-opacity="1" fill-rule="nonzero"/><path fill="rgb(100%, 76.858521%, 67.83905%)" d="M 125.476562 250.058594 L 122.859375 246.347656 C 122.859375 246.347656 122.734375 230.773438 123.222656 230.285156 C 123.710938 229.800781 124.683594 229.375 124.988281 233.328125 C 125.292969 237.28125 125.113281 247.199219 125.113281 247.199219 L 125.476562 250.058594 " fill-opacity="1" fill-rule="nonzero"/><path fill="rgb(58.81958%, 14.118958%, 22.749329%)" d="M 181.261719 316.300781 C 181.261719 316.300781 211.382812 312.203125 214.0625 314.21875 C 214.398438 314.46875 214.167969 321.664062 214.082031 322.164062 C 213.464844 325.652344 203.332031 334.25 195.558594 334.824219 C 186.675781 335.484375 89.792969 329.066406 84.675781 327.820312 C 82.25 327.230469 80.917969 326.511719 80.96875 325.519531 C 80.996094 324.96875 80.328125 318.210938 81.253906 317.46875 C 82.179688 316.726562 86.53125 317.640625 88.453125 316.660156 C 95.765625 312.925781 99.910156 314.21875 99.910156 314.21875 L 181.261719 316.300781 " fill-opacity="1" fill-rule="nonzero"/><path fill="rgb(85.879517%, 28.62854%, 36.859131%)" d="M 181.261719 309.019531 C 181.261719 309.019531 211.046875 311.726562 213.726562 313.738281 C 216.410156 315.75 204.441406 326.886719 195.558594 327.546875 C 186.675781 328.203125 89.792969 321.785156 84.675781 320.539062 C 79.558594 319.292969 79.316406 317.472656 86.625 313.738281 C 93.9375 310.003906 99.910156 306.9375 99.910156 306.9375 L 181.261719 309.019531 " fill-opacity="1" fill-rule="nonzero"/><path fill="rgb(100%, 76.858521%, 67.83905%)" d="M 121.882812 263.136719 C 121.882812 263.136719 113.675781 287.226562 112.175781 287.105469 C 110.671875 286.984375 98.484375 259.609375 94.953125 251.457031 C 91.417969 243.304688 85.8125 234.789062 79.476562 236.003906 C 73.136719 237.222656 69.117188 240.628906 74.480469 258.632812 C 79.839844 276.640625 93.367188 298.054688 101.53125 306.085938 C 109.695312 314.113281 119.691406 314.84375 123.589844 304.382812 C 127.488281 293.917969 129.316406 264.109375 129.316406 264.109375 L 121.882812 263.136719 " fill-opacity="1" fill-rule="nonzero"/><path fill="rgb(93.728638%, 62.748718%, 52.938843%)" d="M 107.246094 218.28125 C 107.246094 218.28125 105.140625 219.515625 98.507812 218.847656 C 98.707031 220.582031 98.722656 221.3125 98.636719 222.773438 C 104.273438 222.46875 107.367188 220 107.367188 220 L 107.246094 218.28125 " fill-opacity="1" fill-rule="nonzero"/><g clip-path="url(#id3)"><g clip-path="url(#id4)"><g clip-path="url(#id5)"><path fill="rgb(99.609375%, 89.408875%, 83.529663%)" d="M 35.707031 79.046875 C 35.429688 79.230469 35.140625 79.398438 34.878906 79.605469 C 32.863281 81.214844 31.332031 83.261719 31.09375 85.808594 C 30.957031 87.96875 31.121094 90.105469 31.578125 92.21875 C 32.0625 94.265625 32.660156 96.277344 33.375 98.253906 C 34.335938 101.359375 35.644531 104.378906 35.796875 107.679688 C 35.980469 109.773438 35.980469 111.863281 35.796875 113.957031 C 35.378906 116.292969 34.828125 118.597656 34.144531 120.867188 C 33.578125 123.109375 33.257812 125.296875 34.640625 127.421875 C 34.910156 127.828125 34.726562 128.554688 34.695312 129.132812 C 34.660156 129.769531 34.480469 130.40625 34.496094 131.042969 C 34.550781 133.152344 35.515625 134.980469 36.449219 136.796875 C 37.746094 139.308594 39.03125 141.855469 41.4375 143.519531 C 43.011719 144.644531 44.652344 145.660156 46.367188 146.566406 C 47.820312 147.347656 49.371094 147.839844 51.011719 148.039062 C 52.652344 148.238281 54.273438 148.132812 55.875 147.726562 C 61.375 146.273438 66.121094 143.382812 70.386719 139.640625 C 72.613281 137.558594 75.019531 135.710938 77.609375 134.101562 C 80.09375 132.589844 82.765625 131.574219 85.625 131.050781 C 88.484375 130.53125 91.34375 130.539062 94.199219 131.078125 C 97.292969 131.644531 100.398438 132.148438 103.507812 132.636719 C 107.300781 133.21875 111.101562 133.292969 114.917969 132.859375 C 115.734375 132.789062 116.53125 132.613281 117.300781 132.324219 C 118.070312 132.035156 118.785156 131.648438 119.449219 131.160156 C 120.113281 130.675781 120.699219 130.109375 121.207031 129.460938 C 121.714844 128.816406 122.125 128.113281 122.4375 127.351562 C 124.132812 123.636719 125.039062 119.683594 124.148438 115.554688 C 123.832031 114.160156 123.4375 112.792969 122.964844 111.445312 C 122.484375 109.855469 121.910156 108.304688 121.234375 106.789062 C 119.714844 103.613281 118.097656 100.503906 117.046875 97.105469 C 116.445312 95.230469 116.136719 93.304688 116.125 91.335938 C 116.113281 89.363281 116.398438 87.433594 116.980469 85.550781 C 117.101562 84.945312 117.34375 84.390625 117.707031 83.890625 C 118.761719 82.765625 119.238281 81.351562 119.925781 80.035156 C 121.652344 76.90625 123.855469 74.160156 126.53125 71.792969 C 131.28125 67.339844 135.3125 62.308594 138.621094 56.699219 C 139.625 55.070312 140.238281 53.304688 140.460938 51.40625 C 140.695312 49.925781 140.441406 48.539062 139.699219 47.242188 C 138.589844 45.472656 137.117188 44.085938 135.277344 43.089844 C 132.257812 41.382812 128.941406 40.792969 125.5625 40.660156 C 120.015625 40.414062 114.65625 41.304688 109.488281 43.332031 C 105.300781 44.925781 101.597656 47.269531 98.371094 50.375 C 94.921875 53.808594 91.304688 57.054688 87.519531 60.113281 C 84.238281 62.566406 80.816406 64.800781 77.25 66.816406 C 75.082031 68.03125 72.851562 69.117188 70.558594 70.082031 C 69.683594 70.425781 68.785156 70.695312 67.867188 70.894531 C 67.335938 71.039062 66.765625 71.066406 66.25 71.257812 C 62.304688 72.695312 58.183594 72.945312 54.046875 73.222656 C 51.511719 73.328125 49 73.652344 46.519531 74.1875 C 42.640625 75.125 38.863281 76.429688 35.707031 79.046875 Z M 35.707031 79.046875 " fill-opacity="1" fill-rule="nonzero"/></g></g></g><path fill="rgb(99.609375%, 89.408875%, 83.529663%)" d="M 318.140625 76.519531 C 323.050781 75.972656 327.855469 75.949219 332.738281 76.734375 C 352.234375 79.875 358.121094 94.519531 344.445312 109.046875 C 339.113281 114.710938 331.988281 117.976562 326.339844 124.230469 C 315.632812 136.082031 316.328125 148.640625 300.046875 156.53125 C 296.347656 158.328125 292.335938 160.023438 288.238281 160.625 C 280.125 161.816406 273.160156 159.828125 266.277344 155.550781 C 242.875 141.003906 239.769531 107.503906 255.867188 86.234375 C 258.992188 82.105469 262.320312 77.851562 267.019531 75.429688 C 284.210938 66.578125 297.710938 97.566406 311.175781 91.792969 C 318.085938 88.828125 311.65625 82.304688 315.488281 77.886719 L 318.140625 76.519531 " fill-opacity="1" fill-rule="evenodd"/><g clip-path="url(#id6)"><path fill="rgb(76.858521%, 25.099182%, 27.059937%)" d="M 107.835938 105.273438 L 105.34375 105.273438 L 105.34375 102.777344 L 100.578125 102.777344 L 100.578125 105.273438 L 98.085938 105.273438 L 98.085938 110.035156 L 100.578125 110.035156 L 100.578125 112.527344 L 105.34375 112.527344 L 105.34375 110.035156 L 107.835938 110.035156 Z M 107.835938 105.273438 " fill-opacity="1" fill-rule="nonzero"/></g><g clip-path="url(#id7)"><path fill="rgb(76.858521%, 25.099182%, 27.059937%)" d="M 283.589844 137.296875 L 281.097656 137.296875 L 281.097656 134.804688 L 276.332031 134.804688 L 276.332031 137.296875 L 273.839844 137.296875 L 273.839844 142.058594 L 276.332031 142.058594 L 276.332031 144.554688 L 281.097656 144.554688 L 281.097656 142.058594 L 283.589844 142.058594 Z M 283.589844 137.296875 " fill-opacity="1" fill-rule="nonzero"/></g><path fill="rgb(76.858521%, 25.099182%, 27.059937%)" d="M 84.285156 144.441406 C 82.835938 144.441406 81.660156 145.617188 81.660156 147.066406 C 81.660156 148.515625 82.835938 149.691406 84.285156 149.691406 C 85.734375 149.691406 86.910156 148.515625 86.910156 147.066406 C 86.910156 145.617188 85.734375 144.441406 84.285156 144.441406 " fill-opacity="1" fill-rule="nonzero"/><path fill="rgb(76.858521%, 25.099182%, 27.059937%)" d="M 296.351562 265.515625 C 295.109375 265.515625 294.101562 266.523438 294.101562 267.765625 C 294.101562 269.007812 295.109375 270.015625 296.351562 270.015625 C 297.59375 270.015625 298.601562 269.007812 298.601562 267.765625 C 298.601562 266.523438 297.59375 265.515625 296.351562 265.515625 " fill-opacity="1" fill-rule="nonzero"/><path fill="rgb(76.858521%, 25.099182%, 27.059937%)" d="M 306 161.914062 C 305.171875 161.914062 304.5 162.585938 304.5 163.414062 C 304.5 164.242188 305.171875 164.914062 306 164.914062 C 306.828125 164.914062 307.5 164.242188 307.5 163.414062 C 307.5 162.585938 306.828125 161.914062 306 161.914062 " fill-opacity="1" fill-rule="nonzero"/></svg>